<?xml version="1.0" encoding="utf-8"?>
<!-- Generator: Adobe Illustrator 28.2.0, SVG Export Plug-In . SVG Version: 6.00 Build 0)  -->
<svg version="1.1" id="Layer_1" xmlns="http://www.w3.org/2000/svg" xmlns:xlink="http://www.w3.org/1999/xlink" x="0px" y="0px"
	 viewBox="0 0 50 50" style="enable-background:new 0 0 50 50;" xml:space="preserve">
<path d="M44.1,10c0.8,0,1.4,0.6,1.4,1.4v27.4c0,0.8-0.6,1.4-1.4,1.4H5.9c-0.8,0-1.4-0.6-1.4-1.4V11.3c0-0.8,0.6-1.4,1.4-1.4H44.1z
	 M5.9,5.9c-3,0-5.5,2.5-5.5,5.5v27.4c0,3,2.5,5.5,5.5,5.5h38.3c3,0,5.5-2.5,5.5-5.5V11.3c0-3-2.5-5.5-5.5-5.5H5.9z M18.2,25
	c3,0,5.5-2.4,5.5-5.5s-2.4-5.5-5.5-5.5s-5.5,2.4-5.5,5.5S15.1,25,18.2,25z M15.4,27.7c-3.8,0-6.8,3.1-6.8,6.8c0,0.8,0.6,1.4,1.4,1.4
	h16.4c0.8,0,1.4-0.6,1.4-1.4c0-3.8-3.1-6.8-6.8-6.8H15.4z M32.5,15.4c-1.1,0-2.1,0.9-2.1,2.1c0,1.1,0.9,2.1,2.1,2.1h6.8
	c1.1,0,2.1-0.9,2.1-2.1c0-1.1-0.9-2.1-2.1-2.1H32.5z M32.5,23.6c-1.1,0-2.1,0.9-2.1,2.1c0,1.1,0.9,2.1,2.1,2.1h6.8
	c1.1,0,2.1-0.9,2.1-2.1s-0.9-2.1-2.1-2.1H32.5z"/>
</svg>
