<?xml version="1.0" encoding="utf-8"?>
<!-- Generator: Adobe Illustrator 28.2.0, SVG Export Plug-In . SVG Version: 6.00 Build 0)  -->
<svg version="1.1" id="Layer_1" xmlns="http://www.w3.org/2000/svg" xmlns:xlink="http://www.w3.org/1999/xlink" x="0px" y="0px"
	 viewBox="0 0 50 50" style="enable-background:new 0 0 50 50;" xml:space="preserve">
<style type="text/css">
	.st0{fill-rule:evenodd;clip-rule:evenodd;}
</style>
<g id="Email_1_">
	<path class="st0" d="M45.3,7.4H4.7c-2.6,0-4.7,1.8-4.7,4.1v27.1c0,2.2,2.1,4.1,4.7,4.1h40.5c2.6,0,4.7-1.8,4.7-4.1V11.4
		C49.9,9.2,47.8,7.4,45.3,7.4z M43.1,39.1L30.3,26.4L25,30.6L20.1,26L7.2,38.7l-4.1-0.2l15.6-13.6l-4.3-3.9L3.5,11.6L6,11.2l8.1,6.4
		L25,26.1l10.8-8.5l8.1-6.4l2.5,0.3l-10.7,9.5l-4.3,3.9l15.5,13.6L43.1,39.1z"/>
</g>
</svg>
