<?xml version="1.0" encoding="utf-8"?>
<!-- Generator: Adobe Illustrator 28.2.0, SVG Export Plug-In . SVG Version: 6.00 Build 0)  -->
<svg version="1.1" id="Layer_1" xmlns="http://www.w3.org/2000/svg" xmlns:xlink="http://www.w3.org/1999/xlink" x="0px" y="0px"
	 viewBox="0 0 50 50" style="enable-background:new 0 0 50 50;" xml:space="preserve">
<g>
	<path d="M31.5,0.4c1.3,0,2.6,0.1,4,0.1c0.9,0,1.7,0.2,2.5,0.2l-0.1,7.9c-0.2,0-0.4,0-0.6,0c-0.9,0-1.7,0-2.6,0c-0.7,0-1.3,0-2,0
		c-2.1,0.1-3.6,0.9-3.7,3.5c-0.1,1.9-0.1,6.1-0.1,6.3c0.1,0,2.2,0,4.3,0c1,0,2.1,0,2.8,0c0.5,0,1.1,0,1.7,0c-0.4,3-0.8,6-1.2,8.9
		h-7.5l-0.2,22.2h-9.2l0.2-22.3h-7.5l0.1-8.8h7.6l0-0.7c0-1.8,0-3.6,0.1-5.3c0-1.1,0.1-2.3,0.3-3.4c0.5-2.7,1.8-5,4-6.6
		c2-1.4,4.2-2,6.6-2.1C31,0.4,31.2,0.4,31.5,0.4z"/>
</g>
</svg>
