<?xml version="1.0" encoding="utf-8"?>
<!-- Generator: Adobe Illustrator 28.2.0, SVG Export Plug-In . SVG Version: 6.00 Build 0)  -->
<svg version="1.1" id="Layer_1" xmlns="http://www.w3.org/2000/svg" xmlns:xlink="http://www.w3.org/1999/xlink" x="0px" y="0px"
	 viewBox="0 0 50 50" style="enable-background:new 0 0 50 50;" xml:space="preserve">
<g>
	<g>
		<path d="M38.1,9C38.2,9,38.2,9,38.1,9c1.6,0,3,1.3,2.9,2.9c0,1.6-1.3,2.9-3,2.9c-1.6,0-2.9-1.3-2.9-2.9C35.2,10.3,36.5,9,38.1,9z"
			/>
	</g>
	<g>
		<path d="M49.2,12.8c0.4,3.9,0.6,22.1-0.5,26.3c-1.5,5.6-5.2,8.9-10.8,9.8c-2.1,0.3-7.8,0.5-13.5,0.5c-5.8,0-11.6-0.2-13.6-0.7
			C5.2,47.3,1.9,43.7,1,38.1c-0.7-4.1-0.7-23.3,0.5-27.5C3,5.2,6.6,2,12.1,1.1c2.5-0.4,7.4-0.6,12.3-0.6c4.6,0,9.2,0.1,12,0.3
			c3.4,0.2,6.4,1.3,8.9,3.7C47.7,6.7,48.9,9.6,49.2,12.8z M44.5,37.3c0.7-4.3,0.7-20,0.3-24c-0.4-4.3-3.1-7.1-7.3-7.8
			C35.3,5.1,30.3,5,25.2,5c-4.9,0-9.7,0.1-11.9,0.4c-4.3,0.5-7.1,3.1-7.8,7.4C4.8,17.2,4.8,34,5.4,37.4c0.5,3.5,2.5,5.9,6,6.9
			c1.9,0.5,7.6,0.7,13.2,0.7c5.1,0,10.2-0.2,12.1-0.4C40.9,44.2,43.8,41.6,44.5,37.3"/>
	</g>
	<g>
		<path d="M25.1,12.5c6.9,0,12.5,5.6,12.4,12.6c-0.1,6.9-5.7,12.5-12.7,12.5c-6.9,0-12.5-5.6-12.4-12.6
			C12.5,18.1,18.2,12.4,25.1,12.5z M24.9,33.1c4.4,0,8.1-3.6,8.2-8c0.1-4.5-3.5-8.2-8-8.2c0,0,0,0-0.1,0c-4.4,0-8.1,3.6-8.2,8
			C16.8,29.4,20.4,33.1,24.9,33.1C24.9,33.1,24.9,33.1,24.9,33.1"/>
	</g>
</g>
</svg>
