<?xml version="1.0" encoding="utf-8"?>
<!-- Generator: Adobe Illustrator 28.2.0, SVG Export Plug-In . SVG Version: 6.00 Build 0)  -->
<svg version="1.1" id="Layer_1" xmlns="http://www.w3.org/2000/svg" xmlns:xlink="http://www.w3.org/1999/xlink" x="0px" y="0px"
	 viewBox="0 0 50 50" style="enable-background:new 0 0 50 50;" xml:space="preserve">
<g>
	<g>
		<path d="M6.3,0.2c3.3,0,5.9,2.7,5.9,6c0,3.3-2.7,6-6,6c-3.3,0-5.9-2.7-5.9-6S3,0.2,6.3,0.2z"/>
	</g>
	<g>
		<polygon points="11.3,16.7 11.1,49.8 0.8,49.8 1,16.7 		"/>
	</g>
	<g>
		<path d="M37.5,15.9c10.4,0,12.3,6.8,12.2,15.8l-0.1,18.1H39.3l0.1-16.1c0-3.9,0-8.8-5.3-8.8c-5.4,0-6.2,4.2-6.2,8.5l-0.1,16.4
			H17.5l0.3-33.1h9.9l0,4.5h0.2C29.1,18.6,32.5,15.9,37.5,15.9z"/>
	</g>
</g>
</svg>
