<?xml version="1.0" encoding="utf-8"?>
<!-- Generator: Adobe Illustrator 28.2.0, SVG Export Plug-In . SVG Version: 6.00 Build 0)  -->
<svg version="1.1" id="Layer_1" xmlns="http://www.w3.org/2000/svg" xmlns:xlink="http://www.w3.org/1999/xlink" x="0px" y="0px"
	 viewBox="0 0 50 50" style="enable-background:new 0 0 50 50;" xml:space="preserve">
<path d="M7.9,6.3c0-3.4,2.8-6.2,6.2-6.2h21.8c3.4,0,6.2,2.8,6.2,6.2v37.4c0,3.4-2.8,6.2-6.2,6.2H14.1c-3.4,0-6.2-2.8-6.2-6.2V6.3z
	 M28.1,43.7c0-1.7-1.4-3.1-3.1-3.1s-3.1,1.4-3.1,3.1c0,1.7,1.4,3.1,3.1,3.1S28.1,45.4,28.1,43.7z M35.9,6.3H14.1v31.2h21.8V6.3z"/>
</svg>
