<?xml version="1.0" encoding="utf-8"?>
<!-- Generator: Adobe Illustrator 28.2.0, SVG Export Plug-In . SVG Version: 6.00 Build 0)  -->
<svg version="1.1" id="Layer_1" xmlns="http://www.w3.org/2000/svg" xmlns:xlink="http://www.w3.org/1999/xlink" x="0px" y="0px"
	 viewBox="0 0 50 50" style="enable-background:new 0 0 50 50;" xml:space="preserve">
<path d="M4.3,1.8C-0.4,6.4-0.6,14,1,20c1.8,7.1,6.7,13.1,12,18c6.4,5.8,15,12.5,24.1,11.8c5.6-0.5,17.5-4.7,10.8-11.9
	c-1.4-1.5-3-3.3-4.8-4.4c-5.1-2.8-8.2,5.1-13.5,3.5c-2.8-0.9-5.2-3.7-7.3-5.6c-3.5-3.4-8.8-7.6-9.1-12.8c-0.1-2.3,2-4.5,3.2-6.4
	c2.3-3.5-1.5-8.2-4.3-10.2c-1.4-1-3.4-2.1-5.2-1.6C6,0.5,5.1,1.1,4.3,1.8z"/>
</svg>
