<?xml version="1.0" encoding="utf-8"?>
<!-- Generator: Adobe Illustrator 28.2.0, SVG Export Plug-In . SVG Version: 6.00 Build 0)  -->
<svg version="1.1" id="Layer_1" xmlns="http://www.w3.org/2000/svg" xmlns:xlink="http://www.w3.org/1999/xlink" x="0px" y="0px"
	 viewBox="0 0 50 50" style="enable-background:new 0 0 50 50;" xml:space="preserve">
<g>
	<path d="M26,0.1c0.9,0,1.8,0.1,2.6,0.2c8.9,1,14.5,7.1,15.5,14c0.5,3.2,0.1,10.9-4.4,16.4c-3,3.7-7,5.4-10.6,5.4
		c-2.6,0-5-0.9-6.6-2.5c-0.3-0.3-0.5-0.6-0.8-1L21.6,33c-1.9,7.2-2.1,8.7-4,12.1c-0.9,1.6-1.9,3.1-3.1,4.5c-0.1,0.1-0.2,0.3-0.4,0.3
		c-0.3-0.1-0.4-0.3-0.4-0.5c-0.3-2.2-0.4-4.3-0.3-6.6c0.1-2.9,0.5-3.8,4.3-19.4c0.1-0.3,0-0.4-0.1-0.6c-0.9-2.4-1-4.8-0.2-7.3
		c0.9-2.9,3.1-4.3,5.1-4.3c1.7,0,3.1,1,3.6,3c0.6,2.7-1.1,6.2-2.5,11.5c-0.8,3.1,1.5,5.5,4.5,5.5c1.2,0,2.5-0.4,3.8-1.3
		c4-2.9,5.6-9.9,5.4-14.8C36.9,8,31.3,5,25.6,5c-2.2,0-4.5,0.5-6.4,1.4c-7.9,3.6-9.7,13.3-6.2,17.8c0.4,0.6,0.8,0.9,0.6,1.5
		c-0.2,0.9-0.4,1.8-0.7,2.7C12.8,28.7,12.4,29,12,29c-0.2,0-0.3,0-0.5-0.1c-1.3-0.5-2.4-1.4-3.3-2.5c-3-3.7-3.8-11.1,0.2-17.3
		C12.4,3,19.3,0.1,26,0.1z"/>
</g>
</svg>
