<?xml version="1.0" encoding="utf-8"?>
<!-- Generator: Adobe Illustrator 28.2.0, SVG Export Plug-In . SVG Version: 6.00 Build 0)  -->
<svg version="1.1" id="Layer_1" xmlns="http://www.w3.org/2000/svg" xmlns:xlink="http://www.w3.org/1999/xlink" x="0px" y="0px"
	 viewBox="0 0 50 50" style="enable-background:new 0 0 50 50;" xml:space="preserve">
<g>
	<g>
		<g>
			<path d="M25,0.9c-13.7,0-24.9,9.2-24.9,20.5c0,6.3,3.4,12.1,9.4,16L12,49.1l9-7.5c1.3,0.2,2.7,0.3,4,0.3
				c13.7,0,24.9-9.2,24.9-20.5C49.9,10.1,38.7,0.9,25,0.9z M25,37.8c-1.4,0-2.9-0.1-4.3-0.4l-0.9-0.1l-5.3,4.3l-1.5-6.8l-0.8-0.5
				c-5.2-3.2-8.2-7.9-8.2-13C4.2,12.4,13.5,5,25,5c11.5,0,20.8,7.4,20.8,16.4C45.8,30.5,36.5,37.8,25,37.8z"/>
		</g>
	</g>
	<g>
		<path d="M41,21.4c0,2.3-1.8,4.2-4.1,4.2h0c-2.3,0-4.2-1.9-4.2-4.1c0-1.1,0.4-2.2,1.2-2.9c0.8-0.8,1.8-1.2,2.9-1.2
			C39.2,17.3,41,19.1,41,21.4z"/>
		<path d="M29.2,21.4c0,1.1-0.4,2.2-1.2,2.9c-0.8,0.8-1.8,1.2-2.9,1.2h0c-2.3,0-4.2-1.9-4.2-4.1c0-2.3,1.9-4.2,4.1-4.2
			C27.3,17.3,29.1,19.2,29.2,21.4z"/>
		<path d="M17.2,21.5c0,2.3-1.8,4.2-4.1,4.2h0c-2.3,0-4.1-1.9-4.2-4.1c0-2.3,1.9-4.1,4.1-4.2C15.4,17.3,17.2,19.2,17.2,21.5z"/>
	</g>
</g>
</svg>
