<?xml version="1.0" encoding="utf-8"?>
<!-- Generator: Adobe Illustrator 28.2.0, SVG Export Plug-In . SVG Version: 6.00 Build 0)  -->
<svg version="1.1" id="Layer_1" xmlns="http://www.w3.org/2000/svg" xmlns:xlink="http://www.w3.org/1999/xlink" x="0px" y="0px"
	 viewBox="0 0 50 50" style="enable-background:new 0 0 50 50;" xml:space="preserve">
<path d="M46.1,12c0,2.6,0,5.1,0,7.7c-0.4,0.1-0.8,0.2-1.2,0.2c-1.8-0.3-3.7-0.5-5.5-1.1c-1.6-0.5-3-1.4-4.7-2.2c0,0.4,0,0.7,0,1
	c0,4.2,0,8.3,0,12.5c0,1.7-0.1,3.5-0.4,5.1c-1.1,5.9-4,10.4-9.6,12.9c-1.4,0.7-3.1,0.9-4.6,1.4c-0.9,0-1.9,0-2.8,0
	c-0.1,0-0.2-0.1-0.4-0.1c-6.4-1-10.2-4.8-12.2-10.7c-0.4-1.2-0.5-2.5-0.8-3.7c0-0.8,0-1.6,0-2.4c0.2-1.1,0.4-2.3,0.7-3.3
	c1.9-6.3,7.1-9.9,13.5-10.8c0.9-0.1,1.8-0.2,2.8-0.3c0,2.7,0,5.1,0,7.6c0,0.6-0.3,0.7-0.8,0.8c-1.6,0.4-3.1,0.8-4.6,1.4
	c-2.4,1.1-3.8,2.9-3.8,5.7c0,3,1.2,5.4,3.9,6.8c2.5,1.4,5.1,1.4,7.5-0.3c1.7-1.2,2.7-3,2.9-5c0.3-2,0.3-4.1,0.3-6.1
	c0-9.1,0-18.2,0-27.2c0-0.4,0-0.8-0.1-1.2c2.7,0,5.4,0,8.1,0c0.1,0.4,0.2,0.7,0.2,1.1C35.7,7.8,39.9,11.8,46.1,12z"/>
</svg>
