<?xml version="1.0" encoding="utf-8"?>
<!-- Generator: Adobe Illustrator 28.2.0, SVG Export Plug-In . SVG Version: 6.00 Build 0)  -->
<svg version="1.1" id="Layer_1" xmlns="http://www.w3.org/2000/svg" xmlns:xlink="http://www.w3.org/1999/xlink" x="0px" y="0px"
	 viewBox="0 0 50 50" style="enable-background:new 0 0 50 50;" xml:space="preserve">
<g>
	<path d="M49.4,9.9c-0.4,0.5-0.7,1-1.1,1.5c-1.1,1.3-2.3,2.5-3.7,3.5l-0.2,0.3c0,1.5,0,3-0.2,4.4c-0.4,3.1-1.3,6.1-2.6,8.9
		c-1.4,2.9-3.2,5.6-5.5,7.9c-3.8,3.9-8.4,6.5-13.8,7.7c-1.8,0.4-3.7,0.6-5.6,0.7c-0.3,0-0.6,0-0.9,0c-5.4,0-10.4-1.4-15.1-4.3
		l-0.2-0.1c0.8,0.1,1.6,0.1,2.3,0.1c2.6,0,5.2-0.5,7.7-1.5c1.7-0.7,3.3-1.6,4.8-2.8C10.2,36,7,32.3,6.1,29.2
		c0.6,0.1,1.2,0.2,1.9,0.2c0.8,0,1.6-0.1,2.4-0.3l0.2-0.1c-2.8-0.7-5-2.2-6.5-4.6c-1-1.6-1.5-3.4-1.4-5.3c1.4,0.7,2.9,1.2,4.4,1.2
		C5,18.8,3.6,16.8,3,14.3c-0.6-2.5-0.2-5,1.1-7.2c5.4,6.4,12.2,9.9,20.5,10.5c-0.1-0.4-0.1-0.7-0.2-1.1c-0.3-2.4,0.2-4.5,1.5-6.5
		c1.6-2.5,3.9-4.1,6.8-4.5c0.6-0.1,1.2-0.2,1.8-0.2c2.6,0,4.9,1,6.9,2.9c0.1,0.1,0.2,0.2,0.4,0.2c0,0,0.1,0,0.2,0
		c2.1-0.4,4-1.2,5.8-2.2L48.1,6c-0.7,2.3-2.2,4.1-4.2,5.4C45.8,11.2,47.6,10.7,49.4,9.9z"/>
</g>
</svg>
