<?xml version="1.0" encoding="utf-8"?>
<!-- Generator: Adobe Illustrator 28.2.0, SVG Export Plug-In . SVG Version: 6.00 Build 0)  -->
<svg version="1.1" id="Layer_1" xmlns="http://www.w3.org/2000/svg" xmlns:xlink="http://www.w3.org/1999/xlink" x="0px" y="0px"
	 viewBox="0 0 50 50" style="enable-background:new 0 0 50 50;" xml:space="preserve">
<style type="text/css">
	.st0{fill-rule:evenodd;clip-rule:evenodd;}
</style>
<g id="Web_copy_2_00000005971309385588906640000013772098327174760332_">
	<path class="st0" d="M25,0.3C11.2,0.3,0.1,11.4,0.1,25S11.2,49.7,25,49.7c13.8,0,24.9-11.1,24.9-24.7S38.8,0.3,25,0.3z M9.7,9.9
		c1.7-1.7,3.7-3.1,6-4.2c-1.6,2.1-2.9,4.8-3.9,7.8h-5C7.6,12.2,8.6,11,9.7,9.9z M5.1,16.8h5.8c-0.4,2.1-0.7,4.3-0.8,6.6H3.5
		C3.6,21.1,4.2,18.9,5.1,16.8z M3.5,26.6h6.6c0.1,2.3,0.4,4.5,0.8,6.6H5.1C4.2,31.1,3.6,28.9,3.5,26.6z M9.7,40.1
		c-1.1-1.1-2.1-2.3-2.9-3.6h5c1,3,2.3,5.7,3.9,7.8C13.5,43.3,11.5,41.9,9.7,40.1z M23.3,46.2c-0.8-0.2-1.5-0.6-2.2-1.1
		c-1.4-1-2.7-2.4-3.8-4.3c-0.8-1.3-1.4-2.7-2-4.2l8.1,0V46.2z M23.3,33.2h-9c-0.5-2.1-0.8-4.3-0.9-6.6h9.9V33.2z M23.3,23.4h-9.9
		c0.1-2.3,0.4-4.5,0.9-6.6h9V23.4z M23.3,13.5h-8.1c0.6-1.5,1.2-3,2-4.2c1.1-1.8,2.4-3.3,3.8-4.3c0.7-0.5,1.5-0.9,2.2-1.1V13.5z
		 M46.5,23.4h-6.6c-0.1-2.3-0.4-4.5-0.8-6.6H45C45.8,18.9,46.4,21.1,46.5,23.4z M40.3,9.9c1.1,1.1,2.1,2.3,2.9,3.6h-5
		c-1-3-2.3-5.7-3.9-7.8C36.5,6.7,38.5,8.1,40.3,9.9z M26.7,3.8c0.8,0.2,1.5,0.6,2.2,1.1c1.4,1,2.7,2.4,3.8,4.3
		c0.8,1.3,1.4,2.7,2,4.2l-8.1,0V3.8z M26.7,16.8h9c0.5,2.1,0.8,4.3,0.9,6.6h-9.9V16.8z M26.7,26.6h9.9c-0.1,2.3-0.4,4.5-0.9,6.6h-9
		V26.6z M28.9,45.1c-0.7,0.5-1.5,0.9-2.2,1.1v-9.6h8.1c-0.6,1.5-1.2,3-2,4.2C31.6,42.6,30.3,44.1,28.9,45.1z M40.3,40.1
		c-1.7,1.7-3.7,3.1-6,4.2c1.6-2.1,2.9-4.8,3.9-7.8h5C42.4,37.8,41.4,39,40.3,40.1z M44.9,33.2h-5.8c0.4-2.1,0.7-4.3,0.8-6.6h6.6
		C46.4,28.9,45.8,31.1,44.9,33.2z"/>
</g>
</svg>
