<?xml version="1.0" encoding="utf-8"?>
<!-- Generator: Adobe Illustrator 28.2.0, SVG Export Plug-In . SVG Version: 6.00 Build 0)  -->
<svg version="1.1" id="Layer_1" xmlns="http://www.w3.org/2000/svg" xmlns:xlink="http://www.w3.org/1999/xlink" x="0px" y="0px"
	 viewBox="0 0 50 50" style="enable-background:new 0 0 50 50;" xml:space="preserve">
<g>
	<g>
		<path d="M16.8,13.4c0.5,0,1,0.1,1.4,0.2c0.3,0,0.5,0.5,0.7,0.8c0.7,1.6,1.4,3.2,2,4.8c0.3,0.9-0.3,1.7-1.5,3.1
			c-0.4,0.5-0.5,0.9-0.2,1.4c2,3.4,4.8,5.9,8.6,7.4c0.2,0.1,0.3,0.1,0.5,0.1c0.3,0,0.6-0.2,0.8-0.5c1.6-1.9,2.1-2.8,2.7-2.8
			c0.2,0,0.3,0.1,0.5,0.2c5,2.4,5.4,2.5,5.4,3c0.1,4-3.4,5.6-5.7,5.6c-0.1,0-0.2,0-0.4,0c-4.8-0.2-12.5-4-17.7-13.2
			c-1.8-3.3-1.5-7,1.2-9.5C15.5,13.5,16.2,13.4,16.8,13.4z"/>
	</g>
	<g>
		<path d="M49.6,20.2c2.4,13.7-6.7,26.7-20.3,29.1c-1.5,0.3-2.9,0.4-4.3,0.4c-3.8,0-7.5-0.9-11.1-2.6c-0.3-0.2-0.7-0.2-1-0.2
			c-0.2,0-0.3,0-0.5,0.1C5.7,48.5,1.4,49.7,0,50c0.3-1.1,0.5-2,0.8-3c0.9-3,1.7-6,2.5-9c0.1-0.5,0.1-1-0.1-1.4
			C-4.3,22,3.7,4.4,19.7,0.7c2-0.5,3.9-0.7,5.8-0.7C37.6,0,47.6,8.9,49.6,20.2z M28.3,45.3c11.3-1.8,19-12.3,17.4-23.5
			C44.2,11.4,35.4,4.1,25.4,4.1c-1.2,0-2.5,0.1-3.8,0.3C7.7,7,0.2,22.5,7,34.8c0.8,1.4,1,2.5,0.4,3.9c-0.6,1.8-1,3.6-1.6,5.5
			c2.5-0.6,4.8-1.2,7-1.8c0.2-0.1,0.4-0.1,0.6-0.1c0.4,0,0.7,0.1,1.1,0.3c3.3,1.9,6.7,2.9,10.3,2.9C26,45.6,27.1,45.5,28.3,45.3"/>
	</g>
</g>
</svg>
