<?xml version="1.0" encoding="utf-8"?>
<!-- Generator: Adobe Illustrator 28.2.0, SVG Export Plug-In . SVG Version: 6.00 Build 0)  -->
<svg version="1.1" id="Layer_1" xmlns="http://www.w3.org/2000/svg" xmlns:xlink="http://www.w3.org/1999/xlink" x="0px" y="0px"
	 viewBox="0 0 50 50" style="enable-background:new 0 0 50 50;" xml:space="preserve">
<g>
	<path d="M48.5,12.1c1.8,4.7,1.7,21.7-0.4,26.2c-0.6,1.2-1.5,2.1-2.7,2.7C43.7,42,34,42.4,24.5,42.4c-8.7,0-17.3-0.3-19.3-1
		c-1.9-0.6-3.1-1.9-3.8-3.7c-1.6-4.5-2-23.5,1.2-27.2c1.1-1.3,2.5-2,4.2-2.2C10.6,7.8,18,7.6,25.2,7.6c9,0,17.9,0.3,19.6,0.9
		C46.6,9.2,47.9,10.4,48.5,12.1z M18.8,32.5c5.1-2.7,10.3-5.3,15.5-8c-5.1-2.7-10.2-5.4-15.3-8C18.9,21.8,18.9,27.1,18.8,32.5"/>
</g>
</svg>
